<svg id="Calque_1" data-name="Calque 1" xmlns="http://www.w3.org/2000/svg" viewBox="0 0 33 33"><defs><style>.cls-1{fill:#263c59;}</style></defs><path class="cls-1" d="M25.39,41.62a16.5,16.5,0,1,1,16.5-16.5A16.52,16.52,0,0,1,25.39,41.62Zm0-31.8a15.31,15.31,0,1,0,15.3,15.3A15.32,15.32,0,0,0,25.39,9.82Z" transform="translate(-8.89 -8.62)"/><polygon class="cls-1" points="25.3 8.54 24.46 7.7 16.5 15.66 8.54 7.7 7.7 8.54 15.66 16.5 7.7 24.46 8.54 25.3 16.5 17.34 24.46 25.3 25.3 24.46 17.34 16.5 25.3 8.54"/></svg>