<svg width="40" height="40" viewBox="0 0 40 40" fill="none" xmlns="http://www.w3.org/2000/svg">
<path d="M24.384 14.9507C23.5383 14.9507 22.9121 15.164 22.4219 15.4335C22.3433 15.154 22.0851 14.9495 21.7808 15.0106H18.0587C17.6907 14.9495 17.3926 15.2476 17.5061 15.6343V29.3551C17.3926 29.7044 17.6907 30.0037 18.0587 29.9788H21.7808C22.1487 30.0037 22.4469 29.7044 22.4469 29.3364L22.4456 21.044C22.4444 21.0403 22.4306 20.6436 22.6814 20.3705C22.8822 20.1534 23.2277 20.0424 23.7054 20.0424C24.5012 20.0424 24.8555 20.368 24.9877 21.0964V29.3364C24.8567 29.7044 25.1549 30.0037 25.5228 29.9788H29.4457C29.8137 30.0037 30.1118 29.7044 29.9796 29.3364V20.8195C30.1106 16.4887 27.0259 14.9507 24.384 14.9507ZM28.7784 28.7314H26.1889V21.0964C26.1889 19.6233 25.2372 18.7102 23.7067 18.7102C22.841 18.7102 22.1675 18.9647 21.7034 19.4661C21.0586 20.1646 21.1085 21.0503 21.2469 21.2473V28.7314H18.7248V16.2829H21.1147V16.702C21.1137 16.8269 21.148 16.9495 21.2136 17.0557C21.2791 17.162 21.3733 17.2475 21.4854 17.3027C21.5974 17.3578 21.7227 17.3801 21.8469 17.3672C21.9711 17.3543 22.0891 17.3066 22.1874 17.2296L22.362 17.0949C22.8672 16.697 23.3899 16.2841 24.3852 16.2841C25.4156 16.2841 28.7797 16.6122 28.7797 20.8208V28.7314H28.7784ZM13.7628 8.73145C12.3633 8.73145 11.2257 9.86903 11.2257 11.2686C11.2257 12.6681 12.3633 13.8057 13.7628 13.8057C15.1623 13.8057 16.2999 12.6681 16.2999 11.2686C16.2999 9.86903 15.1623 8.73145 13.7628 8.73145ZM13.7628 12.4735C13.0992 12.4735 12.5579 11.9321 12.5579 11.2686C12.5579 10.605 13.0992 10.0636 13.7628 10.0636C14.4264 10.0636 14.9678 10.605 14.9678 11.2686C14.9678 11.9321 14.4264 12.4735 13.7628 12.4735ZM15.544 14.9495H11.8419C11.4739 14.9495 11.1758 15.2476 11.2681 15.6343V29.3551C11.1758 29.7044 11.4739 30.0037 11.8419 29.9788H15.544C15.912 30.0037 16.2101 29.7044 16.2101 29.3364V15.6156C16.2101 15.4389 16.1399 15.2695 16.015 15.1446C15.8901 15.0197 15.7207 14.9495 15.544 14.9495ZM15.0102 28.7314H12.508V16.2829H15.0102V28.7314Z" fill="#FFFEFE"/>
<path d="M20 0C8.97094 0 0 8.97094 0 20C0 31.0291 8.97094 40 20 40C31.0291 40 40 31.0291 40 20C40 8.97094 31.0291 0 20 0ZM20 38.6678C9.70687 38.6678 1.33217 30.2931 1.33217 20C1.33217 9.70687 9.70687 1.33217 20 1.33217C30.2931 1.33217 38.6678 9.70687 38.6678 20C38.6678 30.2931 30.2931 38.6678 20 38.6678Z" fill="#FFFEFE"/>
</svg>
