<?xml version="1.0" encoding="utf-8"?>
<!-- Generator: Adobe Illustrator 26.5.0, SVG Export Plug-In . SVG Version: 6.00 Build 0)  -->
<svg version="1.1" id="Calque_1" xmlns="http://www.w3.org/2000/svg" xmlns:xlink="http://www.w3.org/1999/xlink" x="0px" y="0px"
	 viewBox="0 0 283.46 104.88" style="enable-background:new 0 0 283.46 104.88;" xml:space="preserve">
<style type="text/css">
	.st0{fill:#8BB53C;}
	.st1{fill:#263C59;}
</style>
<g>
	<path class="st0" d="M32.18,82.84h-1.46V71.99h1.46V82.84z"/>
	<path class="st0" d="M48.11,82.84h-1.43l-6.25-8.3v8.3h-1.46V71.99h1.38l6.29,8.35v-8.35h1.47V82.84z"/>
	<path class="st0" d="M64.69,81.95c-1.64,0.73-3.26,1.13-4.78,1.13c-3.35,0-5.58-2.28-5.58-5.7c0-3.38,2.31-5.63,5.78-5.63
		c1.04,0,2.37,0.16,3.6,0.51l-0.29,1.42c-1.38-0.3-2.49-0.46-3.21-0.46c-2.6,0-4.33,1.66-4.33,4.16c0,2.54,1.61,4.21,4.04,4.21
		c1.03,0,2.27-0.21,3.38-0.57v-2.86h-3.96v-1.4h5.36V81.95z"/>
	<path class="st0" d="M77.8,76.72v1.4h-5.32v3.32h5.96v1.4h-7.42V71.99h7.42v1.4h-5.96v3.32H77.8z M75.54,70.94h-1.49l1.34-2.36
		h1.89L75.54,70.94z"/>
	<path class="st0" d="M93.91,82.84h-1.43l-6.25-8.3v8.3h-1.46V71.99h1.38l6.29,8.35v-8.35h1.47V82.84z"/>
	<path class="st0" d="M102.16,82.84h-1.46V71.99h1.46V82.84z"/>
	<path class="st0" d="M115.71,76.72v1.4h-5.3v3.32h5.95v1.4h-7.41V71.99h7.41v1.4h-5.95v3.32H115.71z"/>
	<path class="st0" d="M126.71,79.11c-0.25,0.02-0.52,0.02-0.78,0.02h-1.78v3.72h-1.46V71.99c0.91-0.05,2.37-0.1,3.63-0.1
		c2.46,0,4.12,1.23,4.12,3.56c0,1.58-0.86,2.74-2.26,3.29l2.89,4.1h-1.77L126.71,79.11z M126.47,77.77c1.46,0,2.52-0.88,2.52-2.31
		c0-1.5-1.06-2.19-2.63-2.19c-0.74,0-1.41,0.02-2.21,0.05v4.45H126.47z"/>
	<path class="st0" d="M138.3,82.84h-1.46V71.99h1.46V82.84z"/>
	<path class="st0" d="M151.85,76.72v1.4h-5.3v3.32h5.95v1.4h-7.41V71.99h7.41v1.4h-5.95v3.32H151.85z"/>
	<path class="st0" d="M175.68,77.36c0,3.41-2.26,5.62-5.3,5.62c-1.34,0-2.97-0.08-3.8-0.13V71.99c0.83-0.05,2.35-0.13,3.6-0.13
		C173.42,71.87,175.68,74,175.68,77.36z M174.14,77.36c0-2.51-1.61-4.09-3.96-4.09c-0.68,0-1.44,0.03-2.14,0.06v8.17
		c0.75,0.03,1.6,0.05,2.34,0.05C172.53,81.55,174.14,79.94,174.14,77.36z"/>
	<path class="st0" d="M188.63,76.72v1.4h-5.3v3.32h5.95v1.4h-7.41V71.99h7.41v1.4h-5.95v3.32H188.63z"/>
	<path class="st0" d="M203.36,82.84V71.99h1.46v9.48h5.65v1.37H203.36z"/>
	<path class="st0" d="M214.79,72.55c-0.45-0.18-0.66-0.49-0.66-0.91c0-0.59,0.48-1.07,1.06-1.07c0.6,0,1.08,0.48,1.08,1.07
		c0,0.46-0.09,0.59-1.29,3.08h-1.03L214.79,72.55z"/>
	<path class="st0" d="M221.63,82.84h-1.64l4.75-10.91h1.38l4.75,10.91h-1.64l-1.03-2.44h-5.53L221.63,82.84z M223.24,79.05h4.36
		l-2.18-5.15L223.24,79.05z"/>
	<path class="st0" d="M238.18,82.84h-1.46V71.99h1.46V82.84z"/>
	<path class="st0" d="M248.99,79.11c-0.25,0.02-0.52,0.02-0.78,0.02h-1.78v3.72h-1.46V71.99c0.91-0.05,2.37-0.1,3.63-0.1
		c2.46,0,4.12,1.23,4.12,3.56c0,1.58-0.86,2.74-2.26,3.29l2.89,4.1h-1.77L248.99,79.11z M248.75,77.77c1.46,0,2.52-0.88,2.52-2.31
		c0-1.5-1.06-2.19-2.63-2.19c-0.74,0-1.41,0.02-2.21,0.05v4.45H248.75z"/>
</g>
<path class="st1" d="M60.03,61.46L39.2,40.25v21.21h-8.34V30.59h9.05l20.85,21.3v-21.3h8.29v30.87H60.03z"/>
<path class="st1" d="M111.3,59.94c-2.53,0.84-5.06,1.44-7.58,1.81c-2.52,0.37-5.1,0.55-7.74,0.55c-3.37,0-6.37-0.36-9-1.09
	c-2.63-0.73-4.84-1.78-6.64-3.16c-1.8-1.38-3.17-3.06-4.11-5.06c-0.94-1.99-1.42-4.25-1.42-6.76c0-2.34,0.48-4.5,1.43-6.5
	c0.95-2,2.3-3.74,4.04-5.21c1.74-1.48,3.85-2.63,6.32-3.46c2.47-0.83,5.23-1.25,8.27-1.25c2.8,0,5.37,0.38,7.69,1.13
	c2.33,0.76,4.33,1.88,6,3.36c1.67,1.48,2.97,3.31,3.89,5.48c0.92,2.17,1.38,4.67,1.38,7.5v2.07H83.42c0.27,0.97,0.72,1.86,1.34,2.67
	c0.62,0.81,1.46,1.5,2.53,2.07c1.06,0.57,2.37,1.01,3.92,1.33s3.4,0.47,5.56,0.47c1.53,0,3.03-0.09,4.49-0.28
	c1.47-0.19,2.84-0.43,4.11-0.74c1.27-0.31,2.42-0.65,3.45-1.02c1.03-0.37,1.85-0.75,2.48-1.12V59.94z M105.55,43.24
	c-0.08-0.76-0.3-1.55-0.69-2.37c-0.38-0.82-0.98-1.55-1.81-2.21c-0.82-0.66-1.9-1.2-3.24-1.63c-1.33-0.43-3-0.64-4.99-0.64
	c-1.87,0-3.49,0.23-4.85,0.7c-1.36,0.46-2.51,1.04-3.43,1.73c-0.92,0.69-1.64,1.43-2.15,2.22c-0.51,0.79-0.84,1.53-0.99,2.2H105.55z
	"/>
<path class="st1" d="M185.04,54.96h-17.21l-2.9,5.84h-9.3l16.15-30.87h9.3l16.15,30.87h-9.3L185.04,54.96z M170.82,48.94h11.28
	l-5.62-11.37L170.82,48.94z"/>
<path class="st1" d="M201.11,60.8V29.93h8.34V60.8H201.11z"/>
<path class="st1" d="M225.21,60.8h-8.34V29.93h20.89c2.25,0,4.15,0.23,5.72,0.7c1.56,0.46,2.84,1.12,3.82,1.98
	c0.98,0.85,1.69,1.88,2.13,3.09c0.44,1.21,0.66,2.55,0.66,4.03c0,1.3-0.18,2.44-0.55,3.41c-0.37,0.97-0.86,1.81-1.48,2.51
	c-0.62,0.7-1.34,1.28-2.17,1.76c-0.82,0.48-1.69,0.88-2.61,1.19l10.11,12.2h-9.75l-9.35-11.37h-9.1V60.8z M241.68,39.68
	c0-0.6-0.08-1.11-0.24-1.53c-0.16-0.42-0.43-0.76-0.82-1.02c-0.39-0.26-0.91-0.45-1.56-0.57c-0.65-0.12-1.46-0.18-2.44-0.18h-11.41
	v6.61h11.41c0.97,0,1.79-0.06,2.44-0.18c0.65-0.12,1.17-0.31,1.56-0.57c0.39-0.26,0.66-0.6,0.82-1.02
	C241.6,40.79,241.68,40.28,241.68,39.68z"/>
<g>
	<polygon class="st1" points="147.57,53.16 139.99,44.96 139.99,44.96 	"/>
	<polygon class="st1" points="147.57,53.16 139.99,44.96 139.99,44.96 135.01,39.57 126.11,29.93 116.11,29.93 130.01,44.96 
		115.39,60.8 125.36,60.8 134.98,50.4 144.64,60.8 154.64,60.8 	"/>
</g>
<g>
	<path class="st0" d="M140.77,43.24c0.39-0.54,1.3-1.49,2.5-2.75l5.37-6.19c3.11-4.04,6.09-9.08,6.88-14.5
		C129.04,29.1,140.77,43.24,140.77,43.24z"/>
</g>
</svg>
