<?xml version="1.0" encoding="UTF-8"?>
<svg id="Calque_1" data-name="Calque 1" xmlns="http://www.w3.org/2000/svg" viewBox="0 0 222.85 63.41">
  <defs>
    <style>
      .cls-1 {
        fill: #fff;
        stroke: #1d1d1b;
        stroke-miterlimit: 10;
        stroke-width: .1px;
      }
    </style>
  </defs>
  <g>
    <path class="cls-1" d="M1.51,63.12H.05v-10.85H1.51v10.85Z"/>
    <path class="cls-1" d="M17.44,63.12h-1.43l-6.25-8.3v8.3h-1.46v-10.85h1.38l6.29,8.35v-8.35h1.47v10.85Z"/>
    <path class="cls-1" d="M34.02,62.23c-1.64,.73-3.26,1.13-4.78,1.13-3.35,0-5.58-2.28-5.58-5.7s2.31-5.63,5.78-5.63c1.04,0,2.37,.16,3.6,.51l-.29,1.42c-1.38-.3-2.49-.46-3.21-.46-2.6,0-4.33,1.66-4.33,4.16s1.61,4.21,4.04,4.21c1.03,0,2.27-.21,3.38-.57v-2.86h-3.96v-1.4h5.36v5.19Z"/>
    <path class="cls-1" d="M47.13,56.99v1.4h-5.32v3.32h5.96v1.4h-7.42v-10.85h7.42v1.4h-5.96v3.32h5.32Zm-2.26-5.78h-1.49l1.34-2.36h1.89l-1.74,2.36Z"/>
    <path class="cls-1" d="M63.24,63.12h-1.43l-6.25-8.3v8.3h-1.46v-10.85h1.38l6.29,8.35v-8.35h1.47v10.85Z"/>
    <path class="cls-1" d="M71.49,63.12h-1.46v-10.85h1.46v10.85Z"/>
    <path class="cls-1" d="M85.04,56.99v1.4h-5.3v3.32h5.95v1.4h-7.41v-10.85h7.41v1.4h-5.95v3.32h5.3Z"/>
    <path class="cls-1" d="M96.04,59.39c-.25,.02-.52,.02-.78,.02h-1.78v3.72h-1.46v-10.85c.91-.05,2.37-.1,3.63-.1,2.46,0,4.12,1.23,4.12,3.56,0,1.58-.86,2.74-2.26,3.29l2.89,4.1h-1.77l-2.58-3.73Zm-.25-1.34c1.46,0,2.52-.88,2.52-2.31s-1.06-2.19-2.63-2.19c-.74,0-1.41,.02-2.21,.05v4.45h2.32Z"/>
    <path class="cls-1" d="M107.63,63.12h-1.46v-10.85h1.46v10.85Z"/>
    <path class="cls-1" d="M121.18,56.99v1.4h-5.3v3.32h5.95v1.4h-7.41v-10.85h7.41v1.4h-5.95v3.32h5.3Z"/>
    <path class="cls-1" d="M145.01,57.63c0,3.41-2.26,5.62-5.3,5.62-1.34,0-2.97-.08-3.8-.13v-10.85c.83-.05,2.35-.13,3.6-.13,3.24,0,5.5,2.14,5.5,5.49Zm-1.54,0c0-2.51-1.61-4.09-3.96-4.09-.68,0-1.44,.03-2.14,.06v8.17c.75,.03,1.6,.05,2.34,.05,2.15,0,3.77-1.61,3.77-4.2Z"/>
    <path class="cls-1" d="M157.96,56.99v1.4h-5.3v3.32h5.95v1.4h-7.41v-10.85h7.41v1.4h-5.95v3.32h5.3Z"/>
    <path class="cls-1" d="M172.69,63.12v-10.85h1.46v9.48h5.65v1.37h-7.11Z"/>
    <path class="cls-1" d="M184.12,52.83c-.45-.18-.66-.49-.66-.91,0-.59,.48-1.07,1.06-1.07s1.08,.48,1.08,1.07c0,.46-.09,.59-1.29,3.08h-1.03l.85-2.17Z"/>
    <path class="cls-1" d="M190.96,63.12h-1.64l4.75-10.91h1.38l4.75,10.91h-1.64l-1.03-2.44h-5.53l-1.03,2.44Zm1.61-3.8h4.36l-2.18-5.15-2.18,5.15Z"/>
    <path class="cls-1" d="M207.51,63.12h-1.46v-10.85h1.46v10.85Z"/>
    <path class="cls-1" d="M218.32,59.39c-.25,.02-.52,.02-.78,.02h-1.78v3.72h-1.46v-10.85c.91-.05,2.37-.1,3.63-.1,2.46,0,4.12,1.23,4.12,3.56,0,1.58-.86,2.74-2.26,3.29l2.89,4.1h-1.77l-2.58-3.73Zm-.25-1.34c1.46,0,2.52-.88,2.52-2.31s-1.06-2.19-2.63-2.19c-.74,0-1.41,.02-2.21,.05v4.45h2.32Z"/>
  </g>
  <path class="cls-1" d="M29.36,41.74L8.53,20.53v21.21H.19V10.87H9.25l20.85,21.3V10.87h8.29v30.87h-9.03Z"/>
  <path class="cls-1" d="M80.63,40.21c-2.53,.84-5.06,1.44-7.58,1.81-2.52,.37-5.1,.55-7.74,.55-3.37,0-6.37-.36-9-1.09-2.63-.73-4.84-1.78-6.64-3.16-1.8-1.38-3.17-3.06-4.11-5.06-.94-1.99-1.42-4.25-1.42-6.76,0-2.34,.48-4.5,1.43-6.5,.95-2,2.3-3.74,4.04-5.21,1.74-1.48,3.85-2.63,6.32-3.46,2.47-.83,5.23-1.25,8.27-1.25,2.8,0,5.37,.38,7.69,1.13,2.33,.76,4.33,1.88,6,3.36,1.67,1.48,2.97,3.31,3.89,5.48,.92,2.17,1.38,4.67,1.38,7.5v2.07h-30.42c.27,.97,.72,1.86,1.34,2.67,.62,.81,1.46,1.5,2.53,2.07,1.06,.57,2.37,1.01,3.92,1.33s3.4,.47,5.56,.47c1.53,0,3.03-.09,4.49-.28,1.47-.19,2.84-.43,4.11-.74,1.27-.31,2.42-.65,3.45-1.02,1.03-.37,1.85-.75,2.48-1.12v7.21Zm-5.75-16.69c-.08-.76-.3-1.55-.69-2.37-.38-.82-.98-1.55-1.81-2.21-.82-.66-1.9-1.2-3.24-1.63-1.33-.43-3-.64-4.99-.64-1.87,0-3.49,.23-4.85,.7-1.36,.46-2.51,1.04-3.43,1.73-.92,.69-1.64,1.43-2.15,2.22-.51,.79-.84,1.53-.99,2.2h22.13Z"/>
  <path class="cls-1" d="M154.37,35.24h-17.21l-2.9,5.84h-9.3l16.15-30.87h9.3l16.15,30.87h-9.3l-2.9-5.84Zm-14.22-6.02h11.28l-5.62-11.37-5.66,11.37Z"/>
  <path class="cls-1" d="M170.44,41.08V10.21h8.34v30.87h-8.34Z"/>
  <path class="cls-1" d="M194.54,41.08h-8.34V10.21h20.89c2.25,0,4.15,.23,5.72,.7,1.56,.46,2.84,1.12,3.82,1.98,.98,.85,1.69,1.88,2.13,3.09,.44,1.21,.66,2.55,.66,4.03,0,1.3-.18,2.44-.55,3.41-.37,.97-.86,1.81-1.48,2.51-.62,.7-1.34,1.28-2.17,1.76-.82,.48-1.69,.88-2.61,1.19l10.11,12.2h-9.75l-9.35-11.37h-9.1v11.37Zm16.47-21.12c0-.6-.08-1.11-.24-1.53-.16-.42-.43-.76-.82-1.02s-.91-.45-1.56-.57c-.65-.12-1.46-.18-2.44-.18h-11.41v6.61h11.41c.97,0,1.79-.06,2.44-.18,.65-.12,1.17-.31,1.56-.57,.39-.26,.66-.6,.82-1.02,.16-.42,.24-.93,.24-1.53Z"/>
  <g>
    <polygon class="cls-1" points="116.9 33.43 109.32 25.24 109.32 25.24 116.9 33.43"/>
    <polygon class="cls-1" points="116.9 33.43 109.32 25.24 109.32 25.24 104.34 19.84 95.43 10.21 85.44 10.21 99.34 25.24 84.72 41.08 94.69 41.08 104.31 30.68 113.97 41.08 123.97 41.08 116.9 33.43"/>
  </g>
  <path class="cls-1" d="M110.1,23.52c.39-.54,1.3-1.49,2.5-2.75l5.37-6.19c3.11-4.04,6.09-9.08,6.88-14.5-26.48,9.3-14.75,23.44-14.75,23.44Z"/>
</svg>