<svg id="Calque_1" data-name="Calque 1" xmlns="http://www.w3.org/2000/svg" viewBox="0 0 35 33.77"><defs><style>.cls-1{fill:#8bb53c;}</style></defs><path class="cls-1" d="M15,7.16,9.05.57a1.91,1.91,0,0,0-2.73,0L1.45,5.28a4.44,4.44,0,0,0-1,5.15A50.3,50.3,0,0,0,24.16,33.36a4.84,4.84,0,0,0,5.33-1l4.91-4.75a1.75,1.75,0,0,0,0-2.64l-6.86-5.69a2,2,0,0,0-2.55.18l-2.38,2.31a.91.91,0,0,1-.46.23.8.8,0,0,1-.51-.08,25.11,25.11,0,0,1-9.38-9.06.73.73,0,0,1-.09-.5.77.77,0,0,1,.24-.44l2.38-2.3A1.78,1.78,0,0,0,15,7.16Z" transform="translate(0 0)"/></svg>